<svg xmlns="http://www.w3.org/2000/svg" version="1.1" xmlns:xlink="http://www.w3.org/1999/xlink" xmlns:svgjs="http://svgjs.dev/svgjs" width="1500" height="431" viewBox="0 0 1500 431"><g transform="matrix(1,0,0,1,-0.9090909090909918,-0.6001076264349479)"><svg viewBox="0 0 396 114" data-background-color="#ffffff" preserveAspectRatio="xMidYMid meet" height="431" width="1500" xmlns="http://www.w3.org/2000/svg" xmlns:xlink="http://www.w3.org/1999/xlink"><g id="tight-bounds" transform="matrix(1,0,0,1,0.2400000000000091,0.15872916337258403)"><svg viewBox="0 0 395.52 113.68254167325483" height="113.68254167325483" width="395.52"><g><svg viewBox="0 0 574.8577612010477 165.22879094339623" height="113.68254167325483" width="395.52"><g transform="matrix(1,0,0,1,179.33776120104767,52.72496150943397)"><svg viewBox="0 0 395.52 59.7788679245283" height="59.7788679245283" width="395.52"><g id="textblocktransform"><svg viewBox="0 0 395.52 59.7788679245283" height="59.7788679245283" width="395.52" id="textblock"><g><svg viewBox="0 0 395.52 59.7788679245283" height="59.7788679245283" width="395.52"><g transform="matrix(1,0,0,1,0,0)"><svg width="395.52" viewBox="0.05 -37.7 254.36999999999998 38.45" height="59.7788679245283" data-palette-color="#b78d65"><path d="M15.25-26.45L21.3-26.45 14.4 0 7.15 0 0.05-26.45 6.4-26.45 10.75-4.95 15.25-26.45ZM41.1-6.4Q41.1-5.1 41.45-4.48 41.8-3.85 42.6-3.45L42.6-3.45 41.35 0.65Q39.3 0.4 38.07-0.45 36.85-1.3 36.25-3.05L36.25-3.05Q33.95 0.75 29.8 0.75L29.8 0.75Q26.5 0.75 24.55-1.48 22.6-3.7 22.6-7.4L22.6-7.4Q22.6-11.7 25.27-13.95 27.95-16.2 33.05-16.2L33.05-16.2 35.1-16.2 35.1-18.05Q35.1-20.55 34.22-21.58 33.35-22.6 31.4-22.6L31.4-22.6Q29.05-22.6 25.55-21.3L25.55-21.3 24.15-25.3Q26.15-26.2 28.3-26.68 30.45-27.15 32.4-27.15L32.4-27.15Q41.1-27.15 41.1-18.35L41.1-18.35 41.1-6.4ZM31.45-3.7Q33.85-3.7 35.1-7L35.1-7 35.1-12.55 33.65-12.55Q31.1-12.55 29.92-11.4 28.75-10.25 28.75-7.85L28.75-7.85Q28.75-5.8 29.45-4.75 30.15-3.7 31.45-3.7L31.45-3.7ZM54.25-27.15Q58.95-27.15 62.2-24.05L62.2-24.05 59.84-20.7Q58.45-21.7 57.2-22.2 55.95-22.7 54.65-22.7L54.65-22.7Q53.2-22.7 52.37-21.93 51.55-21.15 51.55-19.8L51.55-19.8Q51.55-18.45 52.47-17.63 53.4-16.8 56.2-15.7L56.2-15.7Q59.65-14.35 61.3-12.5 62.95-10.65 62.95-7.55L62.95-7.55Q62.95-3.7 60.25-1.48 57.55 0.75 53.4 0.75L53.4 0.75Q50.7 0.75 48.42-0.23 46.15-1.2 44.45-2.95L44.45-2.95 47.45-6.25Q50.25-3.8 53.15-3.8L53.15-3.8Q54.8-3.8 55.75-4.67 56.7-5.55 56.7-7.1L56.7-7.1Q56.7-8.25 56.3-8.97 55.9-9.7 54.9-10.33 53.9-10.95 51.9-11.7L51.9-11.7Q48.45-13.05 46.97-14.85 45.5-16.65 45.5-19.45L45.5-19.45Q45.5-22.8 47.87-24.98 50.25-27.15 54.25-27.15L54.25-27.15ZM77.94-5L80.09-1.2Q77.64 0.75 74.34 0.75L74.34 0.75Q70.89 0.75 69.09-1.23 67.29-3.2 67.29-6.6L67.29-6.6 67.29-22 64.19-22 64.19-26.45 67.29-26.45 67.29-32.3 73.44-33.05 73.44-26.45 78.44-26.45 77.84-22 73.44-22 73.44-6.6Q73.44-4.2 75.49-4.2L75.49-4.2Q76.14-4.2 76.64-4.38 77.14-4.55 77.94-5L77.94-5ZM100.79-26.45L100.79 0 95.44 0 95.14-3.35Q93.89-1.3 92.34-0.28 90.79 0.75 88.74 0.75L88.74 0.75Q85.84 0.75 84.17-1.3 82.49-3.35 82.49-6.65L82.49-6.65 82.49-26.45 88.64-26.45 88.64-7Q88.64-3.9 90.74-3.9L90.74-3.9Q91.94-3.9 92.89-4.83 93.84-5.75 94.64-7.45L94.64-7.45 94.64-26.45 100.79-26.45ZM116.34-37.05L122.49-37.7 122.49 0 116.34 0 116.34-37.05ZM129.84-26.45L135.84-26.45 128.84-14.75 136.44 0 129.84 0 122.74-14.45 129.84-26.45ZM155.88-6.4Q155.88-5.1 156.23-4.48 156.58-3.85 157.38-3.45L157.38-3.45 156.13 0.65Q154.08 0.4 152.86-0.45 151.63-1.3 151.03-3.05L151.03-3.05Q148.73 0.75 144.58 0.75L144.58 0.75Q141.28 0.75 139.33-1.48 137.38-3.7 137.38-7.4L137.38-7.4Q137.38-11.7 140.06-13.95 142.73-16.2 147.83-16.2L147.83-16.2 149.88-16.2 149.88-18.05Q149.88-20.55 149.01-21.58 148.13-22.6 146.18-22.6L146.18-22.6Q143.83-22.6 140.33-21.3L140.33-21.3 138.93-25.3Q140.93-26.2 143.08-26.68 145.23-27.15 147.18-27.15L147.18-27.15Q155.88-27.15 155.88-18.35L155.88-18.35 155.88-6.4ZM146.23-3.7Q148.63-3.7 149.88-7L149.88-7 149.88-12.55 148.43-12.55Q145.88-12.55 144.71-11.4 143.53-10.25 143.53-7.85L143.53-7.85Q143.53-5.8 144.23-4.75 144.93-3.7 146.23-3.7L146.23-3.7ZM173.33-27.1Q174.48-27.1 175.38-26.75L175.38-26.75 174.38-20.85Q173.38-21.1 172.53-21.1L172.53-21.1Q170.63-21.1 169.53-19.45 168.43-17.8 167.83-14.55L167.83-14.55 167.83 0 161.68 0 161.68-26.45 167.03-26.45 167.48-21.85Q169.33-27.1 173.33-27.1L173.33-27.1ZM201.88-27.15Q204.53-27.15 206.13-25.1 207.73-23.05 207.73-19.6L207.73-19.6 207.73 0 201.68 0 201.68-18.95Q201.68-20.85 201.18-21.68 200.68-22.5 199.73-22.5L199.73-22.5Q197.78-22.5 195.98-18.8L195.98-18.8 195.98 0 189.98 0 189.98-18.95Q189.98-22.5 188.08-22.5L188.08-22.5Q186.03-22.5 184.28-18.8L184.28-18.8 184.28 0 178.23 0 178.23-26.45 183.58-26.45 183.98-23.05Q186.58-27.15 190.23-27.15L190.23-27.15Q192.08-27.15 193.43-26 194.78-24.85 195.48-22.75L195.48-22.75Q198.13-27.15 201.88-27.15L201.88-27.15ZM230.13-6.4Q230.13-5.1 230.48-4.48 230.83-3.85 231.63-3.45L231.63-3.45 230.38 0.65Q228.33 0.4 227.1-0.45 225.88-1.3 225.28-3.05L225.28-3.05Q222.98 0.75 218.83 0.75L218.83 0.75Q215.53 0.75 213.58-1.48 211.63-3.7 211.63-7.4L211.63-7.4Q211.63-11.7 214.3-13.95 216.98-16.2 222.08-16.2L222.08-16.2 224.13-16.2 224.13-18.05Q224.13-20.55 223.25-21.58 222.38-22.6 220.43-22.6L220.43-22.6Q218.08-22.6 214.58-21.3L214.58-21.3 213.18-25.3Q215.18-26.2 217.33-26.68 219.48-27.15 221.43-27.15L221.43-27.15Q230.13-27.15 230.13-18.35L230.13-18.35 230.13-6.4ZM220.48-3.7Q222.88-3.7 224.13-7L224.13-7 224.13-12.55 222.68-12.55Q220.13-12.55 218.95-11.4 217.78-10.25 217.78-7.85L217.78-7.85Q217.78-5.8 218.48-4.75 219.18-3.7 220.48-3.7L220.48-3.7ZM248.27-27.15Q251.12-27.15 252.77-25.1 254.42-23.05 254.42-19.6L254.42-19.6 254.42 0 248.27 0 248.27-18.9Q248.27-20.8 247.75-21.63 247.22-22.45 246.22-22.45L246.22-22.45Q244.12-22.45 242.07-18.5L242.07-18.5 242.07 0 235.92 0 235.92-26.45 241.27-26.45 241.72-23Q243.07-25.1 244.6-26.13 246.12-27.15 248.27-27.15L248.27-27.15Z" opacity="1" transform="matrix(1,0,0,1,0,0)" fill="#b78d65" class="wordmark-text-0" data-fill-palette-color="primary" id="text-0"></path></svg></g></svg></g></svg></g></svg></g><g><svg viewBox="0 0 165.22540517689671 165.22879094339623" height="165.22879094339623" width="165.22540517689671"><g><svg xmlns:x="http://ns.adobe.com/Extensibility/1.0/" xmlns:i="http://ns.adobe.com/AdobeIllustrator/10.0/" xmlns:graph="http://ns.adobe.com/Graphs/1.0/" xmlns="http://www.w3.org/2000/svg" xmlns:xlink="http://www.w3.org/1999/xlink" xmlns:a="http://ns.adobe.com/AdobeSVGViewerExtensions/3.0/" version="1.1" x="0" y="0" viewBox="0 0 48.8 48.801" style="enable-background:new 0 0 48.801 48.801;" xml:space="preserve" width="165.22540517689671" height="165.22879094339623" class="icon-icon-0" data-fill-palette-color="accent" id="icon-0"><g fill="#b78d65" data-fill-palette-color="accent"><g fill="#b78d65" data-fill-palette-color="accent"><path d="M41.403 32.152l7.397-7.397-7.397-7.397V6.896H30.941L24.045 0 17.15 6.896H7.397v9.753L0 24.046l7.397 7.397v10.462H17.86l6.896 6.896 6.896-6.896h9.752V32.152zM45.972 24.755l-4.568 4.568v-9.137L45.972 24.755zM39.403 31.324l-8.581 8.581H18.688l-9.29-9.29V17.477l8.58-8.581h12.135l9.29 9.29V31.324zM39.403 8.896v6.46l-6.461-6.46H39.403zM24.045 2.829l4.066 4.066h-8.133L24.045 2.829zM9.398 8.896h5.751l-5.751 5.751V8.896zM2.829 24.046l4.568-4.568v9.137L2.829 24.046zM9.398 39.904v-6.46l6.461 6.46H9.398zM24.755 45.972l-4.066-4.066h8.133L24.755 45.972zM33.652 39.904l5.751-5.751v5.751H33.652z" fill="#b78d65" data-fill-palette-color="accent"></path></g></g></svg><g></g></g></svg></g></svg></g><defs></defs></svg><rect width="395.52" height="113.68254167325483" fill="none" stroke="none" visibility="hidden"></rect></g></svg></g></svg>